<svg xmlns="http://www.w3.org/2000/svg" xmlns:xlink="http://www.w3.org/1999/xlink" viewBox="0 0 150.87 150.6"><defs><style>.cls-1{fill:none;}.cls-2,.cls-3{fill:#002369;}.cls-3{fill-rule:evenodd;}.cls-4{clip-path:url(#clip-path);}</style><clipPath id="clip-path" transform="translate(0.43 0.44)"><path class="cls-1" d="M12.64,75A62.36,62.36,0,1,1,75,137.36,62.36,62.36,0,0,1,12.64,75M0,75A75,75,0,1,0,75,0,75,75,0,0,0,0,75"/></clipPath></defs><g id="Layer_2" data-name="Layer 2"><g id="Layer_1-2" data-name="Layer 1"><path class="cls-2" d="M75,132.57A57.57,57.57,0,1,1,132.56,75,57.63,57.63,0,0,1,75,132.57ZM75,19.85A55.16,55.16,0,1,0,130.15,75,55.21,55.21,0,0,0,75,19.85Z" transform="translate(0.43 0.44)"/><path class="cls-3" d="M82.82,81.81v4.25H60.11l0-.45a14.9,14.9,0,1,1,1,6.59l-.23-.58h4.61l.12.22a10.66,10.66,0,1,0-.09-10Z" transform="translate(0.43 0.44)"/><rect class="cls-2" x="76.11" y="65.45" width="3.52" height="5.47"/><rect class="cls-2" x="71.24" y="65.45" width="3.52" height="5.47"/><path class="cls-3" d="M103.33,68H99.09V44.66a1.25,1.25,0,0,0-1.24-1.24H96.59a1.24,1.24,0,0,0-1.24,1.24V73.85h26.2a4.56,4.56,0,0,1,4.56,4.56v3.11a4.56,4.56,0,0,1-4.56,4.56H91.1V81.83h30a1.23,1.23,0,0,0,1.24-1.24V79.33a1.24,1.24,0,0,0-1.24-1.24h-30V44.23a4.56,4.56,0,0,1,4.56-4.56h3.11a4.56,4.56,0,0,1,4.56,4.56Z" transform="translate(0.43 0.44)"/><path class="cls-3" d="M51.23,39.67h3.11a4.56,4.56,0,0,1,4.56,4.56V78.09h-30a1.24,1.24,0,0,0-1.24,1.24v1.26a1.23,1.23,0,0,0,1.24,1.24h30v4.25H28.45a4.56,4.56,0,0,1-4.56-4.56V78.41a4.56,4.56,0,0,1,4.56-4.56h26.2V44.66a1.24,1.24,0,0,0-1.24-1.24H52.15a1.25,1.25,0,0,0-1.24,1.24V68H46.67V44.23a4.56,4.56,0,0,1,4.56-4.56" transform="translate(0.43 0.44)"/><path class="cls-3" d="M.12,79.67l12.14-1.49.36,2.91a10.25,10.25,0,0,1,.1,2.35,2.73,2.73,0,0,1-.52,1.26,3.05,3.05,0,0,1-1.47,1.06,8.41,8.41,0,0,1-1.43.37c-.62.12-1.39.24-2.32.35a19.15,19.15,0,0,1-3,.2,4,4,0,0,1-1.62-.36,2.93,2.93,0,0,1-1.24-1.17,7.61,7.61,0,0,1-.64-2.57ZM1.7,81.12l.21,1.71a4,4,0,0,0,.36,1.35,1.57,1.57,0,0,0,.74.7,3.88,3.88,0,0,0,1.4.2A21.5,21.5,0,0,0,7,84.89l1-.16,1.14-.19a4,4,0,0,0,.71-.14,2.39,2.39,0,0,0,.44-.17,1.93,1.93,0,0,0,.94-.93,3.3,3.3,0,0,0,.11-1.64L11.14,80Z" transform="translate(0.43 0.44)"/><path class="cls-3" d="M1.58,90.4l12-2.55.34,1.62L1.92,92Zm13.51-2.84,1.79-.38.33,1.56-1.79.38Z" transform="translate(0.43 0.44)"/><polygon class="cls-3" points="3.87 97.94 8.74 96.35 14.51 91.1 15.08 92.86 10.3 96.86 16.56 97.4 17.07 98.96 9.11 97.97 4.38 99.5 3.87 97.94"/><path class="cls-3" d="M10.77,104.57l1.55,3.17,4.6-4.17Zm-1.86,6.22,2.3-2L9.3,104.84l-3,.54-.76-1.57,12.68-1.91.85,1.74-9.36,8.73Z" transform="translate(0.43 0.44)"/><polygon class="cls-3" points="17.25 120.7 18.15 120 19.04 119.35 25.98 114.31 26.84 115.49 16.94 122.68 15.65 120.91 21.89 110.56 20.86 111.44 20.11 112.03 12.97 117.21 12.11 116.03 22.01 108.83 23.36 110.69 17.25 120.7"/><polygon class="cls-3" points="19.65 125.86 28.45 117.36 32.7 121.75 31.73 122.69 28.6 119.45 25.78 122.18 28.81 125.32 27.82 126.28 24.79 123.13 21.73 126.09 24.86 129.32 23.89 130.26 19.65 125.86"/><polygon class="cls-3" points="28.17 133.89 35.08 125.36 32.74 123.46 33.53 122.48 39.4 127.23 38.61 128.21 36.33 126.37 29.43 134.9 28.17 133.89"/><path class="cls-3" d="M38,140.42l5.93-10.7,1.44.8-5.93,10.7Zm6.72-12,.89-1.61,1.4.78-.89,1.6Z" transform="translate(0.43 0.44)"/><path class="cls-3" d="M45.38,144.28a3.85,3.85,0,0,1-1.16-.7,3,3,0,0,1-.72-1,3.31,3.31,0,0,1,.12-2.67l.07-.17.07-.18,1.65.67-.08.21a2.74,2.74,0,0,0-.24,1.74,1.68,1.68,0,0,0,1.08,1,2.1,2.1,0,0,0,1.57.07,1.77,1.77,0,0,0,1-1c.26-.65-.14-1.7-1.19-3.15l-.34-.48a8.1,8.1,0,0,1-1.4-2.55A3,3,0,0,1,46,134.3a2.87,2.87,0,0,1,1.77-1.72,3.82,3.82,0,0,1,2.76.18,3.54,3.54,0,0,1,2,1.72,3.1,3.1,0,0,1-.07,2.54l-.12.28-1.56-.63.1-.23a2.2,2.2,0,0,0,.13-1.55,1.76,1.76,0,0,0-1.06-1,2,2,0,0,0-1.45-.07,1.52,1.52,0,0,0-1,.9c-.29.73.12,1.88,1.25,3.46l.47.66a7.4,7.4,0,0,1,1.18,2.2,2.65,2.65,0,0,1-.14,1.61,3.25,3.25,0,0,1-1.85,2,3.31,3.31,0,0,1-1.23.19,4.05,4.05,0,0,1-1.36-.29l-.25.63.22.09a2.13,2.13,0,0,1,1.13.86,1.33,1.33,0,0,1,0,1.22,1.39,1.39,0,0,1-.93.87,2.53,2.53,0,0,1-1.59-.2,8.32,8.32,0,0,1-1.86-1.17L43,146l.5.35.48.3.45.26a3,3,0,0,0,.36.18,1.36,1.36,0,0,0,.75.12.59.59,0,0,0,.43-.38.63.63,0,0,0-.05-.6,1.56,1.56,0,0,0-.69-.47l-.25-.1-.17-.07Z" transform="translate(0.43 0.44)"/><polygon class="cls-3" points="53.29 147.3 56.46 135.48 58 135.89 55.2 146.35 59.23 147.43 58.87 148.79 53.29 147.3"/><polygon class="cls-3" points="61.96 149.38 63.67 137.26 69.72 138.11 69.53 139.44 65.08 138.81 64.53 142.7 68.86 143.31 68.67 144.67 64.34 144.07 63.75 148.27 68.2 148.9 68.02 150.23 61.96 149.38"/><path class="cls-3" d="M72.78,143.15l1.18,0a2.93,2.93,0,0,0,2-.48,2.13,2.13,0,0,0,.63-1.65,1.9,1.9,0,0,0-.45-1.41,1.54,1.54,0,0,0-.59-.36,2.54,2.54,0,0,0-.83-.13l-1.82,0Zm1.69-5.29a4.59,4.59,0,0,1,2.83.75,2.67,2.67,0,0,1,.85,2.26,3.33,3.33,0,0,1-.55,1.94,2.86,2.86,0,0,1-1.62,1,1.83,1.83,0,0,1,1.39.71,3.24,3.24,0,0,1,.38,1.88v1.25a11,11,0,0,0,0,1.31,7.58,7.58,0,0,0,.21,1.19l-1.65,0a5.8,5.8,0,0,1-.18-1.12c0-.47,0-1,0-1.61v-1.06a3,3,0,0,0-.08-.85,1.38,1.38,0,0,0-.25-.56,1.36,1.36,0,0,0-1.1-.42l-1.94,0-.09,5.59L71,150l.21-12.24Z" transform="translate(0.43 0.44)"/><path class="cls-3" d="M82.13,149.72l-1.49-12.15,1.64-.2,1.49,12.15ZM80.48,136l-.22-1.82,1.59-.19.22,1.82Z" transform="translate(0.43 0.44)"/><path class="cls-3" d="M92.26,135.38a4.26,4.26,0,0,1,2.82-.11,2.69,2.69,0,0,1,1.5,1.86,3.31,3.31,0,0,1,.07,2,2.39,2.39,0,0,1-1.17,1.36,2.68,2.68,0,0,1,2,.37,2.74,2.74,0,0,1,.7.7,3.86,3.86,0,0,1,.49,1,3.41,3.41,0,0,1-.1,2.75A4.08,4.08,0,0,1,96.05,147l-3.54,1.09-3.58-11.7Zm1.28,10.94,1.74-.53A3,3,0,0,0,97,144.72a2,2,0,0,0,.11-1.76,2.1,2.1,0,0,0-1.07-1.41,2.77,2.77,0,0,0-2,0l-1.83.57Zm-1.68-5.49,1.58-.48a2.75,2.75,0,0,0,1.58-1,2,2,0,0,0,.08-1.67,1.7,1.7,0,0,0-.92-1.18,2.68,2.68,0,0,0-1.79.09l-1.66.51Z" transform="translate(0.43 0.44)"/><path class="cls-3" d="M103.37,139.72l3.21-1.5-4.09-4.67Zm6.19,2-2-2.34-3.95,1.85.49,3-1.58.74-1.69-12.72,1.75-.81,8.56,9.51Z" transform="translate(0.43 0.44)"/><path class="cls-3" d="M116.79,137.44a4,4,0,0,1-1.23.59,3,3,0,0,1-1.2.08,3.31,3.31,0,0,1-2.18-1.56l-.1-.15-.11-.15,1.46-1,.13.19a2.61,2.61,0,0,0,1.33,1.14,1.67,1.67,0,0,0,1.44-.35,2.13,2.13,0,0,0,.91-1.28,1.78,1.78,0,0,0-.29-1.43c-.4-.57-1.5-.81-3.29-.71l-.59,0a8.41,8.41,0,0,1-2.89-.21,3.07,3.07,0,0,1-1.41-1.14,2.83,2.83,0,0,1-.47-2.42,3.82,3.82,0,0,1,1.65-2.22,3.54,3.54,0,0,1,2.56-.78,3.07,3.07,0,0,1,2.09,1.44l.18.25-1.38,1-.15-.21a2.14,2.14,0,0,0-1.22-.95,1.74,1.74,0,0,0-1.4.36,2,2,0,0,0-.85,1.17,1.52,1.52,0,0,0,.24,1.29c.44.64,1.64.92,3.57.83l.82,0a7.35,7.35,0,0,1,2.48.21,2.6,2.6,0,0,1,1.27,1,3.23,3.23,0,0,1,.64,2.62,3.27,3.27,0,0,1-.51,1.13,3.85,3.85,0,0,1-1,1l.39.55.2-.13a2.08,2.08,0,0,1,1.34-.48,1.34,1.34,0,0,1,1,.64,1.37,1.37,0,0,1,.23,1.25,2.53,2.53,0,0,1-1,1.23,6.16,6.16,0,0,1-.84.47,11,11,0,0,1-1.15.46l-.48-.7c.2-.08.39-.15.56-.23l.51-.23.47-.24a3.08,3.08,0,0,0,.34-.2,1.31,1.31,0,0,0,.51-.57.55.55,0,0,0-.08-.56.6.6,0,0,0-.53-.28,1.45,1.45,0,0,0-.77.32l-.22.15-.15.11Z" transform="translate(0.43 0.44)"/><polygon class="cls-3" points="123.62 132.86 115.27 123.91 116.42 122.84 119.91 126.59 119.07 120.36 120.37 119.16 121.25 125.84 128.93 127.91 127.59 129.15 120.41 127.12 124.76 131.79 123.62 132.86"/><path class="cls-3" d="M128.19,121.21l2.22-2.74-5.72-2.41Zm6.42-.94L131.8,119l-2.74,3.39,1.77,2.51-1.1,1.36-7.09-10.69,1.22-1.5,11.86,4.79Z" transform="translate(0.43 0.44)"/><polygon class="cls-3" points="140.4 109.53 139.38 109 138.42 108.47 130.91 104.31 131.63 103.03 142.33 108.96 141.26 110.88 129.25 109.6 130.48 110.17 131.33 110.6 139.05 114.88 138.34 116.16 127.64 110.23 128.75 108.22 140.4 109.53"/><polygon class="cls-3" points="144.04 105.22 132.62 100.83 133.19 99.34 143.3 103.22 144.79 99.32 146.11 99.83 144.04 105.22"/><rect class="cls-2" x="139.99" y="88.35" width="1.65" height="12.24" transform="matrix(0.29, -0.96, 0.96, 0.29, 9.74, 201.95)"/><path class="cls-3" d="M140,84.3a2.37,2.37,0,0,0-1.7.26,1.94,1.94,0,0,0-.8,1.39,1.89,1.89,0,0,0,.64,2,10.34,10.34,0,0,0,3.9,1.13,9.63,9.63,0,0,0,4,.08,2.06,2.06,0,0,0,1.29-1.79,6.31,6.31,0,0,0,.08-.84c0-.32,0-.69,0-1.11l-3.58-.57-.26,1.68-1.4-.22.52-3.25,6.06.95c0,.7.07,1.37.07,2a10.78,10.78,0,0,1-.12,1.57,5.6,5.6,0,0,1-.54,1.77,2.77,2.77,0,0,1-1,1.09,4,4,0,0,1-2,.55,12.31,12.31,0,0,1-1.54,0q-.9-.07-2.1-.27a17.33,17.33,0,0,1-2.85-.64,5,5,0,0,1-1.6-.89,2.94,2.94,0,0,1-.86-1.43,4.67,4.67,0,0,1-.06-2,3.72,3.72,0,0,1,1.32-2.51,3.38,3.38,0,0,1,2.69-.53h0Zm-7.63,3.14.12-.84a1.38,1.38,0,0,0,.95-.28,1.49,1.49,0,0,0,.41-.91,1.43,1.43,0,0,0-.12-1,1.36,1.36,0,0,0-.8-.57l.13-.84a2.9,2.9,0,0,1,1,.32,2.14,2.14,0,0,1,.66.56,2.16,2.16,0,0,1,.29,1.7,2.18,2.18,0,0,1-.8,1.52,2.13,2.13,0,0,1-.8.32,2.67,2.67,0,0,1-1,0" transform="translate(0.43 0.44)"/><rect class="cls-2" x="142.51" y="73.23" width="1.65" height="12.24" transform="translate(54.61 217.22) rotate(-86)"/><g class="cls-4"><polygon class="cls-3" points="57.25 2.21 64.35 0.81 66.31 14.29 60.57 15.43 57.25 2.21"/><polygon class="cls-3" points="47.85 5.21 54.7 2.9 58.41 16.01 52.86 17.89 47.85 5.21"/><polygon class="cls-3" points="38.92 9.41 45.41 6.22 50.8 18.74 45.54 21.32 38.92 9.41"/><polygon class="cls-3" points="30.61 14.75 36.63 10.73 43.61 22.44 38.74 25.69 30.61 14.75"/><polygon class="cls-3" points="23.07 21.12 28.52 16.35 36.96 27.04 32.56 30.9 23.07 21.12"/><polygon class="cls-3" points="16.43 28.42 21.21 22.98 30.98 32.48 27.11 36.88 16.43 28.42"/><polygon class="cls-3" points="10.8 36.52 14.82 30.51 25.75 38.65 22.49 43.52 10.8 36.52"/><polygon class="cls-3" points="6.28 45.29 9.48 38.81 21.38 45.45 18.78 50.7 6.28 45.29"/><polygon class="cls-3" points="2.93 54.58 5.26 47.73 17.92 52.77 16.03 58.31 2.93 54.58"/><polygon class="cls-3" points="0.83 64.22 2.25 57.13 15.46 60.47 14.31 66.21 0.83 64.22"/><polygon class="cls-3" points="0 74.05 0.48 66.83 14.01 68.42 13.63 74.27 0 74.05"/><polygon class="cls-3" points="150.4 66.97 150.87 74.19 137.25 74.38 136.87 68.53 150.4 66.97"/><polygon class="cls-3" points="148.66 57.25 150.06 64.35 136.58 66.32 135.44 60.57 148.66 57.25"/><polygon class="cls-3" points="145.66 47.85 147.97 54.7 134.86 58.41 132.99 52.87 145.66 47.85"/><polygon class="cls-3" points="141.46 38.92 144.65 45.41 132.14 50.8 129.55 45.55 141.46 38.92"/><polygon class="cls-3" points="136.12 30.62 140.14 36.63 128.43 43.61 125.18 38.74 136.12 30.62"/><polygon class="cls-3" points="129.76 23.07 134.52 28.52 123.83 36.97 119.97 32.56 129.76 23.07"/><polygon class="cls-3" points="122.45 16.43 127.89 21.21 118.39 30.98 113.99 27.11 122.45 16.43"/><polygon class="cls-3" points="114.35 10.8 120.36 14.82 112.22 25.75 107.35 22.49 114.35 10.8"/><polygon class="cls-3" points="105.58 6.28 112.07 9.48 105.42 21.38 100.17 18.78 105.58 6.28"/><polygon class="cls-3" points="96.3 2.93 103.15 5.26 98.11 17.92 92.56 16.04 96.3 2.93"/><polygon class="cls-3" points="86.65 0.83 93.75 2.25 90.41 15.46 84.66 14.31 86.65 0.83"/><polygon class="cls-3" points="76.82 0 84.04 0.48 82.45 14.01 76.61 13.63 76.82 0"/><polygon class="cls-3" points="66.96 0.47 74.18 0 74.37 13.63 68.53 14 66.96 0.47"/></g></g></g></svg>